# xmcd
#
# Track frame offsets:
# 150
# 12736
# 31742
# 47499
# 60784
# 71375
# 101132
# 121907
# 133346
# 150123
# 167975
# 185044
# 199210
# 214606
# 228553
# 245423
# 259081
#
# Disc length: 3605 seconds
#
#
# Revision: 2
# Processed by: cddbd v1.5.2PL0 Copyright (c) Steve Scherf et al.
# Submitted via: FreeRIP 2.96 
#
DISCID=e90e1311
DTITLE=Gleydson Rodrigues - Rodeio
DYEAR=2002
DGENRE=Country
TTITLE0=Dá Dá Dá
TTITLE1=Feliz
TTITLE2=Boca a Boca
TTITLE3=Prenda Minha
TTITLE4=Vai Jotinha
TTITLE5=Estrada do Amor
TTITLE6=Não Chores Mais
TTITLE7=Festa na Roça
TTITLE8=Meio Desligado
TTITLE9=Pout Pourri
TTITLE10=Solução
TTITLE11=Nega
TTITLE12=Colo de Menina
TTITLE13=Sempre Será
TTITLE14=Vem me Amar
TTITLE15=Cuitelinho
TTITLE16=Ligação a Cobrar
EXTD=
EXTT0=
EXTT1=
EXTT2=
EXTT3=
EXTT4=
EXTT5=
EXTT6=
EXTT7=
EXTT8=
EXTT9=
EXTT10=
EXTT11=
EXTT12=
EXTT13=
EXTT14=
EXTT15=
EXTT16=
PLAYORDER=
